<svg xmlns="http://www.w3.org/2000/svg" viewBox="0 0 400 400">
  <path fill="#042F13" d="M0,0 C150,20 250,150 350,200 C360,180 280,100 200,50 C280,60 380,80 400,20 C300,0 150,0 0,0 Z"/>
  <path fill="#024D1E" d="M200,50 C250,100 280,180 260,250 C250,230 230,150 150,100 Z"/>
  <!-- Glowing Leaves -->
  <path fill="#00E676" d="M350,200 C370,180 400,210 380,230 C360,250 330,220 350,200 Z" opacity="0.9"/>
  <path fill="#69F0AE" d="M260,250 C280,240 310,270 290,290 C270,300 240,270 260,250 Z" opacity="0.9"/>
  <path fill="#00E676" d="M150,100 C170,80 200,110 180,130 C160,150 130,120 150,100 Z" opacity="0.85"/>
  <path fill="#B2FF59" d="M400,20 C420,0 450,30 430,50 C410,70 380,40 400,20 Z" opacity="0.9"/>
  <path fill="#69F0AE" d="M280,100 C300,80 330,110 310,130 C290,150 260,120 280,100 Z" opacity="0.85"/>
  <path fill="#00E676" d="M100,200 C120,180 150,210 130,230 C110,250 80,220 100,200 Z" opacity="0.7"/>
  <path fill="#B2FF59" d="M200,200 C220,180 250,210 230,230 C210,250 180,220 200,200 Z" opacity="0.8"/>
</svg>
